<svg height="512" viewBox="0 0 56 56" width="512" xmlns="http://www.w3.org/2000/svg"><g id="Page-1" fill="none" fill-rule="evenodd"><g id="020---Newspaper" fill="rgb(0,0,0)" fill-rule="nonzero"><path id="Shape" d="m10 41v-12.45c.0018973-.5357894.145413-1.0615537.416-1.524l5.222-8.873c.7747215-1.4088804.2930005-3.1782872-1.089-4-.1550548-.0990441-.3350139-.1520956-.519-.153-.347771.0005736-.6707849.1800258-.855.475l-8.993 14.625c-.77337185 1.2607143-1.18249177 2.7109786-1.182 4.19v3.71c-.006.118-.285 5.261 3.6 8.2.44182775.3313709.53137078.9581722.19999994 1.4-.33137083.4418277-.95817214.5313708-1.39999994.2-1.18960759-.9010401-2.17204983-2.0468248-2.881-3.36l-2.4 11.96c-.03003227.1471275.00764964.2999625.10263188.4162673.09498225.1163048.23720677.1837633.38736812.1837327h12.128c.2437696.0000519.4520467-.1756951.493-.416l.674-3.953c.1300853-.8917374.8486866-1.5815122 1.745-1.675 2.5714833-.2730651 5.0044771-1.3016591 6.992-2.956h-6.641c-3.3137085 0-6-2.6862915-6-6z"/><rect id="Rectangle-path" height="6" rx="1" width="10" x="32" y="16"/><path id="Shape" d="m48.5 17c-.2761424 0-.5.2238576-.5.5v23.285c-.0444884 2.1124275 1.5056205 3.9208878 3.6 4.2 1.296582.1322946 2.5758388-.3782876 3.425-1.367.647169-.7703808.9935157-1.7490321.975-2.755v-23.363c0-.2761424-.2238576-.5-.5-.5z"/><rect id="Rectangle-path" height="8" rx="1" width="10" x="16" y="33"/><path id="Shape" d="m45.5 0h-33c-.2761424 0-.5.22385763-.5.5v12.3c.5514123-.5133704 1.2766051-.7991607 2.03-.8.551662-.0022321 1.092747.1513237 1.561.443 2.3109754 1.3816176 3.1022724 4.3517522 1.785 6.7l-5.239 8.9c-.0890911.1516139-.1363657.324149-.137.5v12.457c0 2.209139 1.790861 4 4 4h31.6c-1.0311023-1.1619012-1.6003665-2.6615567-1.6-4.215v-40.285c0-.27614237-.2238576-.5-.5-.5zm-15.624 2.008c.5478221-.06832198 1.0473712.32021625 1.116.868l.591 4.724.517-1.047c.187968-.31527061.5279475-.50839059.895-.50839059s.707032.19311998.895.50839059l.527 1.047.591-4.723c.0800921-.53712636.5742283-.91215521 1.1130995-.8447963.5388713.06735891.9254885.55248193.8709005 1.0927963l-1 8c-.0544466.4372793-.388708.7873805-.823.862-.0559058.0087541-.1124131.0131008-.169.013-.3808256.0020788-.7297741-.2123306-.9-.553l-1.1-2.211-1.1 2.211c-.1969228.3944054-.6288844.6133352-1.0633984.5389589-.4345139-.0743762-.769068-.4245114-.8236016-.8619589l-1-8c-.0684591-.54610275.3172384-1.04487262.863-1.116zm-7.876 1.992c0-1.1045695.8954305-2 2-2h2c.5522847 0 1 .44771525 1 1s-.4477153 1-1 1h-2v2h1c.5522847 0 1 .44771525 1 1s-.4477153 1-1 1h-1v2h2c.5522847 0 1 .4477153 1 1s-.4477153 1-1 1h-2c-1.1045695 0-2-.8954305-2-2zm-1 12h6c.5522847 0 1 .4477153 1 1s-.4477153 1-1 1h-6c-.5522847 0-1-.4477153-1-1s.4477153-1 1-1zm7 6c0 .5522847-.4477153 1-1 1h-7c-.5522847 0-1-.4477153-1-1s.4477153-1 1-1h7c.5522847 0 1 .4477153 1 1zm-12-14.764v1.764c0 .55228475-.4477153 1-1 1s-1-.44771525-1-1v-6c-.0052636-.46823782.3151034-.87742618.770926-.98466446.4558227-.10723828.9250221.11619422 1.129074.53766446l2.1 4.211v-3.764c0-.55228475.4477153-1 1-1s1 .44771525 1 1v8c.0004339.4641918-.3186234.8676531-.7704163.9742238-.451793.1065707-.9175238-.1117718-1.1245837-.5272238zm12 32.764c0 1.6568542-1.3431458 3-3 3h-8c-1.6568542 0-3-1.3431458-3-3v-6c0-1.6568542 1.3431458-3 3-3h8c1.6568542 0 3 1.3431458 3 3zm15 3h-12c-.5522847 0-1-.4477153-1-1s.4477153-1 1-1h12c.5522847 0 1 .4477153 1 1s-.4477153 1-1 1zm0-5h-12c-.5522847 0-1-.4477153-1-1s.4477153-1 1-1h12c.5522847 0 1 .4477153 1 1s-.4477153 1-1 1zm0-5h-12c-.5522847 0-1-.4477153-1-1s.4477153-1 1-1h12c.5522847 0 1 .4477153 1 1s-.4477153 1-1 1zm0-5h-27c-.5522847 0-1-.4477153-1-1s.4477153-1 1-1h27c.5522847 0 1 .4477153 1 1s-.4477153 1-1 1zm1-7c0 1.6568542-1.3431458 3-3 3h-8c-1.6568542 0-3-1.3431458-3-3v-4c0-1.6568542 1.3431458-3 3-3h8c1.6568542 0 3 1.3431458 3 3zm-3-9c-1.0719329-.0013692-2.0622534-.5727079-2.6-1.5-.2561528-.4759933-.0876904-1.06938359.3803603-1.33977682.4680507-.27039322 1.0662521-.11990529 1.3506397.33977682.2424614.41995043.7512754.6054271 1.2071135.44002598.455838-.16540114.7273175-.63400785.6440595-1.11172531s-.4972567-.82685699-.982173-.82830067c-1.4556384-.00093362-2.7005654-1.0466857-2.9527216-2.48031794-.2521561-1.43363224.5612283-2.84141291 1.9291876-3.33897844 1.3679593-.49756554 2.8957143.05867643 3.623534 1.31929638.1917488.30994149.19969.69965932.0207263 1.01715472s-.5164881.51248348-.880931.50891448c-.3644428-.003569-.6980838-.20512983-.8707953-.5260692-.2424614-.41995043-.7512754-.60542711-1.2071135-.44002598-.455838.16540114-.7273175.63400785-.6440595 1.11172531s.4972567.82685699.982173.82830067c1.6568542.00000003 2.9999999 1.34314578 2.9999999 3 0 1.6568542-1.3431457 3-2.9999999 3z"/></g></g></svg>